<?xml version="1.0" encoding="UTF-8" standalone="no"?>
<!DOCTYPE svg PUBLIC "-//W3C//DTD SVG 1.1//EN"
 "http://www.w3.org/Graphics/SVG/1.1/DTD/svg11.dtd">
<!-- Generated by graphviz version 2.43.0 (0)
 -->
<!-- Title: master Pages: 1 -->
<svg width="1595pt" height="123pt"
 viewBox="0.00 0.00 1594.66 123.00" xmlns="http://www.w3.org/2000/svg" xmlns:xlink="http://www.w3.org/1999/xlink">
<g id="graph0" class="graph" transform="scale(1 1) rotate(0) translate(4 119)">
<title>master</title>
<polygon fill="#ffffff" stroke="transparent" points="-4,4 -4,-119 1590.66,-119 1590.66,4 -4,4"/>
<text text-anchor="middle" x="793.33" y="-99" font-family="Helvetica,sans-Serif" font-size="15.00" fill="#131c24">convNPClimate — all pipelines</text>
<!-- IN -->
<g id="node1" class="node">
<title>IN</title>
<path fill="#e6eef8" stroke="#2560a6" stroke-width="1.5" d="M142,-90C142,-90 12,-90 12,-90 6,-90 0,-84 0,-78 0,-78 0,-66 0,-66 0,-60 6,-54 12,-54 12,-54 142,-54 142,-54 148,-54 154,-60 154,-66 154,-66 154,-78 154,-78 154,-84 148,-90 142,-90"/>
<text text-anchor="middle" x="77" y="-75.2" font-family="Helvetica,sans-Serif" font-size="11.00" fill="#173a63">ERA5 context</text>
<text text-anchor="middle" x="77" y="-63.2" font-family="Helvetica,sans-Serif" font-size="11.00" fill="#173a63">(surface / atmospheric)</text>
</g>
<!-- CTX -->
<g id="node3" class="node">
<title>CTX</title>
<path fill="#e6eef8" stroke="#2560a6" stroke-width="1.5" d="M300,-90C300,-90 233,-90 233,-90 227,-90 221,-84 221,-78 221,-78 221,-66 221,-66 221,-60 227,-54 233,-54 233,-54 300,-54 300,-54 306,-54 312,-60 312,-66 312,-66 312,-78 312,-78 312,-84 306,-90 300,-90"/>
<text text-anchor="middle" x="266.5" y="-69.2" font-family="Helvetica,sans-Serif" font-size="11.00" fill="#173a63">context grid</text>
</g>
<!-- IN&#45;&gt;CTX -->
<g id="edge1" class="edge">
<title>IN&#45;&gt;CTX</title>
<path fill="none" stroke="#7d8b98" stroke-width="1.3" d="M154.26,-72C173.87,-72 194.53,-72 212.66,-72"/>
<polygon fill="#7d8b98" stroke="#7d8b98" stroke-width="1.3" points="212.8,-74.8 220.8,-72 212.8,-69.2 212.8,-74.8"/>
</g>
<!-- MS -->
<g id="node2" class="node">
<title>MS</title>
<path fill="#e6eef8" stroke="#2560a6" stroke-width="1.5" d="M330,-36C330,-36 203,-36 203,-36 197,-36 191,-30 191,-24 191,-24 191,-12 191,-12 191,-6 197,0 203,0 203,0 330,0 330,0 336,0 342,-6 342,-12 342,-12 342,-24 342,-24 342,-30 336,-36 330,-36"/>
<text text-anchor="middle" x="266.5" y="-15.2" font-family="Helvetica,sans-Serif" font-size="11.00" fill="#173a63">MeteoSwiss + DEM/TPI</text>
</g>
<!-- TG -->
<g id="node4" class="node">
<title>TG</title>
<path fill="#e6eef8" stroke="#2560a6" stroke-width="1.5" d="M494.5,-36C494.5,-36 411.5,-36 411.5,-36 405.5,-36 399.5,-30 399.5,-24 399.5,-24 399.5,-12 399.5,-12 399.5,-6 405.5,0 411.5,0 411.5,0 494.5,0 494.5,0 500.5,0 506.5,-6 506.5,-12 506.5,-12 506.5,-24 506.5,-24 506.5,-30 500.5,-36 494.5,-36"/>
<text text-anchor="middle" x="453" y="-15.2" font-family="Helvetica,sans-Serif" font-size="11.00" fill="#173a63">targets + dists</text>
</g>
<!-- MS&#45;&gt;TG -->
<g id="edge2" class="edge">
<title>MS&#45;&gt;TG</title>
<path fill="none" stroke="#7d8b98" stroke-width="1.3" d="M342.01,-18C358.36,-18 375.49,-18 391.22,-18"/>
<polygon fill="#7d8b98" stroke="#7d8b98" stroke-width="1.3" points="391.31,-20.8 399.31,-18 391.31,-15.2 391.31,-20.8"/>
</g>
<!-- ENC -->
<g id="node5" class="node">
<title>ENC</title>
<path fill="#e4f1ea" stroke="#2c8b58" stroke-width="1.5" d="M515,-90C515,-90 391,-90 391,-90 385,-90 379,-84 379,-78 379,-78 379,-66 379,-66 379,-60 385,-54 391,-54 391,-54 515,-54 515,-54 521,-54 527,-60 527,-66 527,-66 527,-78 527,-78 527,-84 521,-90 515,-90"/>
<text text-anchor="middle" x="453" y="-69.2" font-family="Helvetica,sans-Serif" font-size="11.00" fill="#1c4f33">encoder → CNN → MLP</text>
</g>
<!-- CTX&#45;&gt;ENC -->
<g id="edge3" class="edge">
<title>CTX&#45;&gt;ENC</title>
<path fill="none" stroke="#7d8b98" stroke-width="1.3" d="M312.16,-72C329.78,-72 350.6,-72 370.7,-72"/>
<polygon fill="#7d8b98" stroke="#7d8b98" stroke-width="1.3" points="370.96,-74.8 378.96,-72 370.96,-69.2 370.96,-74.8"/>
</g>
<!-- FL -->
<g id="node6" class="node">
<title>FL</title>
<path fill="#e4f1ea" stroke="#2c8b58" stroke-width="1.5" d="M659,-62C659,-62 576,-62 576,-62 570,-62 564,-56 564,-50 564,-50 564,-38 564,-38 564,-32 570,-26 576,-26 576,-26 659,-26 659,-26 665,-26 671,-32 671,-38 671,-38 671,-50 671,-50 671,-56 665,-62 659,-62"/>
<text text-anchor="middle" x="617.5" y="-41.2" font-family="Helvetica,sans-Serif" font-size="11.00" fill="#1c4f33">RBF grid→point</text>
</g>
<!-- TG&#45;&gt;FL -->
<g id="edge7" class="edge">
<title>TG&#45;&gt;FL</title>
<path fill="none" stroke="#7d8b98" stroke-width="1.3" d="M506.76,-26.44C522.31,-28.93 539.45,-31.67 555.47,-34.23"/>
<polygon fill="#7d8b98" stroke="#7d8b98" stroke-width="1.3" points="555.39,-37.06 563.73,-35.56 556.27,-31.53 555.39,-37.06"/>
</g>
<!-- ENC&#45;&gt;FL -->
<g id="edge4" class="edge">
<title>ENC&#45;&gt;FL</title>
<path fill="none" stroke="#7d8b98" stroke-width="1.3" d="M527.17,-59.39C536.68,-57.75 546.34,-56.09 555.63,-54.49"/>
<polygon fill="#7d8b98" stroke="#7d8b98" stroke-width="1.3" points="556.26,-57.22 563.67,-53.1 555.31,-51.7 556.26,-57.22"/>
</g>
<!-- EL -->
<g id="node7" class="node">
<title>EL</title>
<path fill="#e4f1ea" stroke="#2c8b58" stroke-width="1.5" d="M798,-62C798,-62 720,-62 720,-62 714,-62 708,-56 708,-50 708,-50 708,-38 708,-38 708,-32 714,-26 720,-26 720,-26 798,-26 798,-26 804,-26 810,-32 810,-38 810,-38 810,-50 810,-50 810,-56 804,-62 798,-62"/>
<text text-anchor="middle" x="759" y="-41.2" font-family="Helvetica,sans-Serif" font-size="11.00" fill="#1c4f33">elevation MLP</text>
</g>
<!-- FL&#45;&gt;EL -->
<g id="edge5" class="edge">
<title>FL&#45;&gt;EL</title>
<path fill="none" stroke="#7d8b98" stroke-width="1.3" d="M671.24,-44C680.55,-44 690.29,-44 699.74,-44"/>
<polygon fill="#7d8b98" stroke="#7d8b98" stroke-width="1.3" points="699.95,-46.8 707.95,-44 699.95,-41.2 699.95,-46.8"/>
</g>
<!-- HEAD -->
<g id="node8" class="node">
<title>HEAD</title>
<path fill="#e4f1ea" stroke="#2c8b58" stroke-width="1.5" d="M921.58,-59.55C921.58,-59.55 858.92,-46.45 858.92,-46.45 853.04,-45.23 853.04,-42.77 858.92,-41.55 858.92,-41.55 921.58,-28.45 921.58,-28.45 927.46,-27.23 939.2,-27.23 945.08,-28.45 945.08,-28.45 1007.74,-41.55 1007.74,-41.55 1013.62,-42.77 1013.62,-45.23 1007.74,-46.45 1007.74,-46.45 945.08,-59.55 945.08,-59.55 939.2,-60.77 927.46,-60.77 921.58,-59.55"/>
<text text-anchor="middle" x="933.33" y="-41.2" font-family="Helvetica,sans-Serif" font-size="11.00" fill="#1c4f33">output head</text>
</g>
<!-- EL&#45;&gt;HEAD -->
<g id="edge6" class="edge">
<title>EL&#45;&gt;HEAD</title>
<path fill="none" stroke="#7d8b98" stroke-width="1.3" d="M810.31,-44C819.31,-44 828.95,-44 838.72,-44"/>
<polygon fill="#7d8b98" stroke="#7d8b98" stroke-width="1.3" points="838.94,-46.8 846.94,-44 838.94,-41.2 838.94,-46.8"/>
</g>
<!-- GA -->
<g id="node9" class="node">
<title>GA</title>
<path fill="#e4f1ea" stroke="#2c8b58" stroke-width="1.5" d="M1204.66,-90C1204.66,-90 1128.66,-90 1128.66,-90 1122.66,-90 1116.66,-84 1116.66,-78 1116.66,-78 1116.66,-66 1116.66,-66 1116.66,-60 1122.66,-54 1128.66,-54 1128.66,-54 1204.66,-54 1204.66,-54 1210.66,-54 1216.66,-60 1216.66,-66 1216.66,-66 1216.66,-78 1216.66,-78 1216.66,-84 1210.66,-90 1204.66,-90"/>
<text text-anchor="middle" x="1166.66" y="-69.2" font-family="Helvetica,sans-Serif" font-size="11.00" fill="#1c4f33">Gaussian μ, σ</text>
</g>
<!-- HEAD&#45;&gt;GA -->
<g id="edge8" class="edge">
<title>HEAD&#45;&gt;GA</title>
<path fill="none" stroke="#7d8b98" stroke-width="1.3" d="M988.27,-50.53C1024.27,-54.89 1071.54,-60.61 1108.24,-65.05"/>
<polygon fill="#7d8b98" stroke="#7d8b98" stroke-width="1.3" points="1108.09,-67.85 1116.37,-66.03 1108.76,-62.29 1108.09,-67.85"/>
<text text-anchor="middle" x="1053.16" y="-62.8" font-family="Times,serif" font-size="9.00" fill="#57697a">tmax</text>
</g>
<!-- BG -->
<g id="node10" class="node">
<title>BG</title>
<path fill="#e4f1ea" stroke="#2c8b58" stroke-width="1.5" d="M1234.66,-36C1234.66,-36 1098.66,-36 1098.66,-36 1092.66,-36 1086.66,-30 1086.66,-24 1086.66,-24 1086.66,-12 1086.66,-12 1086.66,-6 1092.66,0 1098.66,0 1098.66,0 1234.66,0 1234.66,0 1240.66,0 1246.66,-6 1246.66,-12 1246.66,-12 1246.66,-24 1246.66,-24 1246.66,-30 1240.66,-36 1234.66,-36"/>
<text text-anchor="middle" x="1166.66" y="-15.2" font-family="Helvetica,sans-Serif" font-size="11.00" fill="#1c4f33">Bernoulli&#45;Gamma ρ, α, β</text>
</g>
<!-- HEAD&#45;&gt;BG -->
<g id="edge9" class="edge">
<title>HEAD&#45;&gt;BG</title>
<path fill="none" stroke="#7d8b98" stroke-width="1.3" d="M989.74,-37.77C1016.25,-34.79 1048.63,-31.15 1078.34,-27.81"/>
<polygon fill="#7d8b98" stroke="#7d8b98" stroke-width="1.3" points="1079.01,-30.56 1086.64,-26.88 1078.38,-24.99 1079.01,-30.56"/>
<text text-anchor="middle" x="1053.16" y="-34.8" font-family="Times,serif" font-size="9.00" fill="#57697a">precip</text>
</g>
<!-- TR -->
<g id="node11" class="node">
<title>TR</title>
<path fill="#f6ecd9" stroke="#b9791c" stroke-width="1.5" d="M1356.66,-62C1356.66,-62 1295.66,-62 1295.66,-62 1289.66,-62 1283.66,-56 1283.66,-50 1283.66,-50 1283.66,-38 1283.66,-38 1283.66,-32 1289.66,-26 1295.66,-26 1295.66,-26 1356.66,-26 1356.66,-26 1362.66,-26 1368.66,-32 1368.66,-38 1368.66,-38 1368.66,-50 1368.66,-50 1368.66,-56 1362.66,-62 1356.66,-62"/>
<text text-anchor="middle" x="1326.16" y="-47.2" font-family="Helvetica,sans-Serif" font-size="11.00" fill="#6b470f">k&#45;fold train</text>
<text text-anchor="middle" x="1326.16" y="-35.2" font-family="Helvetica,sans-Serif" font-size="11.00" fill="#6b470f">NLL / CRPS</text>
</g>
<!-- GA&#45;&gt;TR -->
<g id="edge10" class="edge">
<title>GA&#45;&gt;TR</title>
<path fill="none" stroke="#7d8b98" stroke-width="1.3" d="M1217.06,-63.22C1235.69,-59.91 1256.87,-56.14 1275.51,-52.83"/>
<polygon fill="#7d8b98" stroke="#7d8b98" stroke-width="1.3" points="1276.22,-55.54 1283.61,-51.39 1275.24,-50.03 1276.22,-55.54"/>
</g>
<!-- BG&#45;&gt;TR -->
<g id="edge11" class="edge">
<title>BG&#45;&gt;TR</title>
<path fill="none" stroke="#7d8b98" stroke-width="1.3" d="M1246.87,-31.08C1256.71,-32.7 1266.53,-34.32 1275.73,-35.84"/>
<polygon fill="#7d8b98" stroke="#7d8b98" stroke-width="1.3" points="1275.3,-38.61 1283.65,-37.15 1276.21,-33.08 1275.3,-38.61"/>
</g>
<!-- DS -->
<g id="node12" class="node">
<title>DS</title>
<path fill="#ece5f6" stroke="#7154a8" stroke-width="1.5" d="M1574.66,-62C1574.66,-62 1417.66,-62 1417.66,-62 1411.66,-62 1405.66,-56 1405.66,-50 1405.66,-50 1405.66,-38 1405.66,-38 1405.66,-32 1411.66,-26 1417.66,-26 1417.66,-26 1574.66,-26 1574.66,-26 1580.66,-26 1586.66,-32 1586.66,-38 1586.66,-38 1586.66,-50 1586.66,-50 1586.66,-56 1580.66,-62 1574.66,-62"/>
<text text-anchor="middle" x="1496.16" y="-47.2" font-family="Helvetica,sans-Serif" font-size="11.00" fill="#3f2c63">evaluate · eval_precip</text>
<text text-anchor="middle" x="1496.16" y="-35.2" font-family="Helvetica,sans-Serif" font-size="11.00" fill="#3f2c63">predict · feature_importance</text>
</g>
<!-- TR&#45;&gt;DS -->
<g id="edge12" class="edge">
<title>TR&#45;&gt;DS</title>
<path fill="none" stroke="#7d8b98" stroke-width="1.3" d="M1368.69,-44C1377.58,-44 1387.34,-44 1397.36,-44"/>
<polygon fill="#7d8b98" stroke="#7d8b98" stroke-width="1.3" points="1397.45,-46.8 1405.45,-44 1397.45,-41.2 1397.45,-46.8"/>
</g>
</g>
</svg>
