<?xml version="1.0" encoding="UTF-8" standalone="no"?>
<!DOCTYPE svg PUBLIC "-//W3C//DTD SVG 1.1//EN"
 "http://www.w3.org/Graphics/SVG/1.1/DTD/svg11.dtd">
<!-- Generated by graphviz version 2.43.0 (0)
 -->
<!-- Title: tmax_full Pages: 1 -->
<svg width="2000pt" height="281pt"
 viewBox="0.00 0.00 2000.00 281.00" xmlns="http://www.w3.org/2000/svg" xmlns:xlink="http://www.w3.org/1999/xlink">
<g id="graph0" class="graph" transform="scale(1 1) rotate(0) translate(4 277)">
<title>tmax_full</title>
<polygon fill="#ffffff" stroke="transparent" points="-4,4 -4,-277 1996,-277 1996,4 -4,4"/>
<text text-anchor="start" x="8" y="-261.2" font-family="Helvetica,sans-Serif" font-weight="bold" font-size="11.00" fill="#57697a">Shapes</text>
<text text-anchor="start" x="8" y="-250.2" font-family="Helvetica,sans-Serif" font-size="11.00" fill="#57697a">B = batch (days, 8)</text>
<text text-anchor="start" x="8" y="-239.2" font-family="Helvetica,sans-Serif" font-size="11.00" fill="#57697a">C = channels (6 surface / 95 atmospheric)</text>
<text text-anchor="start" x="8" y="-228.2" font-family="Helvetica,sans-Serif" font-size="11.00" fill="#57697a">lat × lon = ERA5 context grid (29×61 surface)</text>
<text text-anchor="start" x="8" y="-217.2" font-family="Helvetica,sans-Serif" font-size="11.00" fill="#57697a">P = 88,800 target points</text>
<g id="clust1" class="cluster">
<title>cluster_surf</title>
<path fill="#f1f6fc" stroke="#2560a6" d="M43,-130C43,-130 505.5,-130 505.5,-130 511.5,-130 517.5,-136 517.5,-142 517.5,-142 517.5,-190 517.5,-190 517.5,-196 511.5,-202 505.5,-202 505.5,-202 43,-202 43,-202 37,-202 31,-196 31,-190 31,-190 31,-142 31,-142 31,-136 37,-130 43,-130"/>
<text text-anchor="middle" x="119.5" y="-189.2" font-family="Helvetica,sans-Serif" font-size="11.00" fill="#173a63">Surface input &#160;(&#45;&#45;use&#45;surface)</text>
</g>
<g id="clust2" class="cluster">
<title>cluster_atm</title>
<path fill="#f1f6fc" stroke="#2560a6" d="M20,-50C20,-50 518,-50 518,-50 524,-50 530,-56 530,-62 530,-62 530,-110 530,-110 530,-116 524,-122 518,-122 518,-122 20,-122 20,-122 14,-122 8,-116 8,-110 8,-110 8,-62 8,-62 8,-56 14,-50 20,-50"/>
<text text-anchor="middle" x="124.5" y="-109.2" font-family="Helvetica,sans-Serif" font-size="11.00" fill="#173a63">Atmospheric input &#160;(&#45;&#45;use&#45;atmospheric)</text>
</g>
<g id="clust3" class="cluster">
<title>cluster_enc</title>
<path fill="#edf6f0" stroke="#2c8b58" d="M705,-103C705,-103 866,-103 866,-103 872,-103 878,-109 878,-115 878,-115 878,-163 878,-163 878,-169 872,-175 866,-175 866,-175 705,-175 705,-175 699,-175 693,-169 693,-163 693,-163 693,-115 693,-115 693,-109 699,-103 705,-103"/>
<text text-anchor="middle" x="785.5" y="-162.2" font-family="Helvetica,sans-Serif" font-size="11.00" fill="#1c4f33">Encoder — depthwise SetConv</text>
</g>
<g id="clust4" class="cluster">
<title>cluster_cnn</title>
<path fill="#edf6f0" stroke="#2c8b58" d="M926.5,-103C926.5,-103 1072.5,-103 1072.5,-103 1078.5,-103 1084.5,-109 1084.5,-115 1084.5,-115 1084.5,-163 1084.5,-163 1084.5,-169 1078.5,-175 1072.5,-175 1072.5,-175 926.5,-175 926.5,-175 920.5,-175 914.5,-169 914.5,-163 914.5,-163 914.5,-115 914.5,-115 914.5,-109 920.5,-103 926.5,-103"/>
<text text-anchor="middle" x="999.5" y="-162.2" font-family="Helvetica,sans-Serif" font-size="11.00" fill="#1c4f33">CNN decoder — ResNet × 6</text>
</g>
<g id="clust5" class="cluster">
<title>cluster_gmlp</title>
<path fill="#edf6f0" stroke="#2c8b58" d="M1133,-103C1133,-103 1234,-103 1234,-103 1240,-103 1246,-109 1246,-115 1246,-115 1246,-163 1246,-163 1246,-169 1240,-175 1234,-175 1234,-175 1133,-175 1133,-175 1127,-175 1121,-169 1121,-163 1121,-163 1121,-115 1121,-115 1121,-109 1127,-103 1133,-103"/>
<text text-anchor="middle" x="1153.5" y="-162.2" font-family="Helvetica,sans-Serif" font-size="11.00" fill="#1c4f33">Grid MLP</text>
</g>
<g id="clust6" class="cluster">
<title>cluster_rbf</title>
<path fill="#edf6f0" stroke="#2c8b58" d="M1292,-45C1292,-45 1462,-45 1462,-45 1468,-45 1474,-51 1474,-57 1474,-57 1474,-105 1474,-105 1474,-111 1468,-117 1462,-117 1462,-117 1292,-117 1292,-117 1286,-117 1280,-111 1280,-105 1280,-105 1280,-57 1280,-57 1280,-51 1286,-45 1292,-45"/>
<text text-anchor="middle" x="1370" y="-104.2" font-family="Helvetica,sans-Serif" font-size="11.00" fill="#1c4f33">RBF final layer — grid → point</text>
</g>
<g id="clust7" class="cluster">
<title>cluster_emlp</title>
<path fill="#edf6f0" stroke="#2c8b58" d="M1515,-8C1515,-8 1650,-8 1650,-8 1656,-8 1662,-14 1662,-20 1662,-20 1662,-68 1662,-68 1662,-74 1656,-80 1650,-80 1650,-80 1515,-80 1515,-80 1509,-80 1503,-74 1503,-68 1503,-68 1503,-20 1503,-20 1503,-14 1509,-8 1515,-8"/>
<text text-anchor="middle" x="1582.5" y="-67.2" font-family="Helvetica,sans-Serif" font-size="11.00" fill="#1c4f33">Elevation + seasonal MLP</text>
</g>
<!-- s_in -->
<g id="node1" class="node">
<title>s_in</title>
<path fill="#e6eef8" stroke="#2560a6" stroke-width="1.4" d="M152,-174C152,-174 51,-174 51,-174 45,-174 39,-168 39,-162 39,-162 39,-150 39,-150 39,-144 45,-138 51,-138 51,-138 152,-138 152,-138 158,-138 164,-144 164,-150 164,-150 164,-162 164,-162 164,-168 158,-174 152,-174"/>
<text text-anchor="middle" x="101.5" y="-159" font-family="Helvetica,sans-Serif" font-size="10.00" fill="#173a63">ERA5&#45;Land t2m_max</text>
<text text-anchor="middle" x="101.5" y="-148" font-family="Helvetica,sans-Serif" font-size="10.00" fill="#173a63">+ geopotential</text>
</g>
<!-- s_ld -->
<g id="node2" class="node">
<title>s_ld</title>
<path fill="#e6eef8" stroke="#2560a6" stroke-width="1.4" d="M342,-174C342,-174 244,-174 244,-174 238,-174 232,-168 232,-162 232,-162 232,-150 232,-150 232,-144 238,-138 244,-138 244,-138 342,-138 342,-138 348,-138 354,-144 354,-150 354,-150 354,-162 354,-162 354,-168 348,-174 342,-174"/>
<text text-anchor="middle" x="293" y="-159" font-family="Helvetica,sans-Serif" font-size="10.00" fill="#173a63">load_era5_data</text>
<text text-anchor="middle" x="293" y="-148" font-family="Helvetica,sans-Serif" font-size="10.00" fill="#173a63">snap → clean 29×61</text>
</g>
<!-- s_in&#45;&gt;s_ld -->
<g id="edge1" class="edge">
<title>s_in&#45;&gt;s_ld</title>
<path fill="none" stroke="#7d8b98" stroke-width="1.3" d="M164.03,-156C183.03,-156 204.08,-156 223.53,-156"/>
<polygon fill="#7d8b98" stroke="#7d8b98" stroke-width="1.3" points="223.75,-158.8 231.75,-156 223.75,-153.2 223.75,-158.8"/>
</g>
<!-- s_cx -->
<g id="node3" class="node">
<title>s_cx</title>
<path fill="#e6eef8" stroke="#2560a6" stroke-width="1.4" d="M497.5,-174C497.5,-174 423.5,-174 423.5,-174 417.5,-174 411.5,-168 411.5,-162 411.5,-162 411.5,-150 411.5,-150 411.5,-144 417.5,-138 423.5,-138 423.5,-138 497.5,-138 497.5,-138 503.5,-138 509.5,-144 509.5,-150 509.5,-150 509.5,-162 509.5,-162 509.5,-168 503.5,-174 497.5,-174"/>
<text text-anchor="middle" x="460.5" y="-159" font-family="Helvetica,sans-Serif" font-size="10.00" fill="#173a63">surface context</text>
<text text-anchor="middle" x="460.5" y="-148" font-family="Helvetica,sans-Serif" font-size="10.00" fill="#173a63">(B, 6, 29, 61)</text>
</g>
<!-- s_ld&#45;&gt;s_cx -->
<g id="edge2" class="edge">
<title>s_ld&#45;&gt;s_cx</title>
<path fill="none" stroke="#7d8b98" stroke-width="1.3" d="M354.22,-156C370.19,-156 387.38,-156 403.15,-156"/>
<polygon fill="#7d8b98" stroke="#7d8b98" stroke-width="1.3" points="403.25,-158.8 411.25,-156 403.25,-153.2 403.25,-158.8"/>
</g>
<!-- ctx -->
<g id="node7" class="node">
<title>ctx</title>
<path fill="#dde6ef" stroke="#8a97a3" stroke-width="1.4" d="M644,-147C644,-147 579,-147 579,-147 573,-147 567,-141 567,-135 567,-135 567,-123 567,-123 567,-117 573,-111 579,-111 579,-111 644,-111 644,-111 650,-111 656,-117 656,-123 656,-123 656,-135 656,-135 656,-141 650,-147 644,-147"/>
<text text-anchor="middle" x="611.5" y="-132" font-family="Helvetica,sans-Serif" font-size="10.00" fill="#2b3640">context</text>
<text text-anchor="middle" x="611.5" y="-121" font-family="Helvetica,sans-Serif" font-size="10.00" fill="#2b3640">(B, C, lat, lon)</text>
</g>
<!-- s_cx&#45;&gt;ctx -->
<g id="edge5" class="edge">
<title>s_cx&#45;&gt;ctx</title>
<path fill="none" stroke="#7d8b98" stroke-width="1.3" d="M509.88,-147.23C525.51,-144.4 542.89,-141.25 558.76,-138.38"/>
<polygon fill="#7d8b98" stroke="#7d8b98" stroke-width="1.3" points="559.52,-141.08 566.9,-136.9 558.52,-135.57 559.52,-141.08"/>
</g>
<!-- a_in -->
<g id="node4" class="node">
<title>a_in</title>
<path fill="#e6eef8" stroke="#2560a6" stroke-width="1.4" d="M175,-94C175,-94 28,-94 28,-94 22,-94 16,-88 16,-82 16,-82 16,-70 16,-70 16,-64 22,-58 28,-58 28,-58 175,-58 175,-58 181,-58 187,-64 187,-70 187,-70 187,-82 187,-82 187,-88 181,-94 175,-94"/>
<text text-anchor="middle" x="101.5" y="-79" font-family="Helvetica,sans-Serif" font-size="10.00" fill="#173a63">ERA5 pressure levels z,t,q</text>
<text text-anchor="middle" x="101.5" y="-68" font-family="Helvetica,sans-Serif" font-size="10.00" fill="#173a63">(6 levels × 5 hours) + anchors</text>
</g>
<!-- a_bd -->
<g id="node5" class="node">
<title>a_bd</title>
<path fill="#e6eef8" stroke="#2560a6" stroke-width="1.4" d="M340.5,-94C340.5,-94 245.5,-94 245.5,-94 239.5,-94 233.5,-88 233.5,-82 233.5,-82 233.5,-70 233.5,-70 233.5,-64 239.5,-58 245.5,-58 245.5,-58 340.5,-58 340.5,-58 346.5,-58 352.5,-64 352.5,-70 352.5,-70 352.5,-82 352.5,-82 352.5,-88 346.5,-94 340.5,-94"/>
<text text-anchor="middle" x="293" y="-79" font-family="Helvetica,sans-Serif" font-size="10.00" fill="#173a63">build native / regrid</text>
<text text-anchor="middle" x="293" y="-68" font-family="Helvetica,sans-Serif" font-size="10.00" fill="#173a63">per&#45;channel z&#45;score</text>
</g>
<!-- a_in&#45;&gt;a_bd -->
<g id="edge3" class="edge">
<title>a_in&#45;&gt;a_bd</title>
<path fill="none" stroke="#7d8b98" stroke-width="1.3" d="M187.27,-76C199.92,-76 212.81,-76 225.03,-76"/>
<polygon fill="#7d8b98" stroke="#7d8b98" stroke-width="1.3" points="225.37,-78.8 233.37,-76 225.37,-73.2 225.37,-78.8"/>
</g>
<!-- a_cx -->
<g id="node6" class="node">
<title>a_cx</title>
<path fill="#e6eef8" stroke="#2560a6" stroke-width="1.4" d="M510,-94C510,-94 411,-94 411,-94 405,-94 399,-88 399,-82 399,-82 399,-70 399,-70 399,-64 405,-58 411,-58 411,-58 510,-58 510,-58 516,-58 522,-64 522,-70 522,-70 522,-82 522,-82 522,-88 516,-94 510,-94"/>
<text text-anchor="middle" x="460.5" y="-79" font-family="Helvetica,sans-Serif" font-size="10.00" fill="#173a63">atmospheric context</text>
<text text-anchor="middle" x="460.5" y="-68" font-family="Helvetica,sans-Serif" font-size="10.00" fill="#173a63">(B, 95, grid)</text>
</g>
<!-- a_bd&#45;&gt;a_cx -->
<g id="edge4" class="edge">
<title>a_bd&#45;&gt;a_cx</title>
<path fill="none" stroke="#7d8b98" stroke-width="1.3" d="M352.82,-76C365.09,-76 378.12,-76 390.72,-76"/>
<polygon fill="#7d8b98" stroke="#7d8b98" stroke-width="1.3" points="390.92,-78.8 398.92,-76 390.92,-73.2 390.92,-78.8"/>
</g>
<!-- a_cx&#45;&gt;ctx -->
<g id="edge6" class="edge">
<title>a_cx&#45;&gt;ctx</title>
<path fill="none" stroke="#7d8b98" stroke-width="1.3" d="M512.36,-94.09C527.44,-99.45 543.95,-105.33 559.07,-110.7"/>
<polygon fill="#7d8b98" stroke="#7d8b98" stroke-width="1.3" points="558.35,-113.42 566.83,-113.46 560.23,-108.15 558.35,-113.42"/>
</g>
<!-- enc -->
<g id="node8" class="node">
<title>enc</title>
<path fill="#e4f1ea" stroke="#2c8b58" stroke-width="1.4" d="M852,-147C852,-147 718,-147 718,-147 712,-147 706,-141 706,-135 706,-135 706,-123 706,-123 706,-117 712,-111 718,-111 718,-111 852,-111 852,-111 858,-111 864,-117 864,-123 864,-123 864,-135 864,-135 864,-141 858,-147 852,-147"/>
<text text-anchor="middle" x="785" y="-132" font-family="Helvetica,sans-Serif" font-size="10.00" fill="#1c4f33">conv(x·mask) / conv(mask)</text>
<text text-anchor="middle" x="785" y="-121" font-family="Helvetica,sans-Serif" font-size="10.00" fill="#1c4f33">+ density confidence → 128</text>
</g>
<!-- ctx&#45;&gt;enc -->
<g id="edge7" class="edge">
<title>ctx&#45;&gt;enc</title>
<path fill="none" stroke="#7d8b98" stroke-width="1.3" d="M656.22,-129C668.83,-129 683.05,-129 697.31,-129"/>
<polygon fill="#7d8b98" stroke="#7d8b98" stroke-width="1.3" points="697.69,-131.8 705.69,-129 697.69,-126.2 697.69,-131.8"/>
</g>
<!-- cnn -->
<g id="node9" class="node">
<title>cnn</title>
<path fill="#e4f1ea" stroke="#2c8b58" stroke-width="1.4" d="M1043.5,-147C1043.5,-147 954.5,-147 954.5,-147 948.5,-147 942.5,-141 942.5,-135 942.5,-135 942.5,-123 942.5,-123 942.5,-117 948.5,-111 954.5,-111 954.5,-111 1043.5,-111 1043.5,-111 1049.5,-111 1055.5,-117 1055.5,-123 1055.5,-123 1055.5,-135 1055.5,-135 1055.5,-141 1049.5,-147 1043.5,-147"/>
<text text-anchor="middle" x="999" y="-132" font-family="Helvetica,sans-Serif" font-size="10.00" fill="#1c4f33">6 × ResConvBlock</text>
<text text-anchor="middle" x="999" y="-121" font-family="Helvetica,sans-Serif" font-size="10.00" fill="#1c4f33">width 128</text>
</g>
<!-- enc&#45;&gt;cnn -->
<g id="edge8" class="edge">
<title>enc&#45;&gt;cnn</title>
<path fill="none" stroke="#7d8b98" stroke-width="1.3" d="M864.04,-129C887.17,-129 912.22,-129 934.32,-129"/>
<polygon fill="#7d8b98" stroke="#7d8b98" stroke-width="1.3" points="934.33,-131.8 942.33,-129 934.33,-126.2 934.33,-131.8"/>
</g>
<!-- gmlp -->
<g id="node10" class="node">
<title>gmlp</title>
<path fill="#e4f1ea" stroke="#2c8b58" stroke-width="1.4" d="M1226,-147C1226,-147 1141,-147 1141,-147 1135,-147 1129,-141 1129,-135 1129,-135 1129,-123 1129,-123 1129,-117 1135,-111 1141,-111 1141,-111 1226,-111 1226,-111 1232,-111 1238,-117 1238,-123 1238,-123 1238,-135 1238,-135 1238,-141 1232,-147 1226,-147"/>
<text text-anchor="middle" x="1183.5" y="-132" font-family="Helvetica,sans-Serif" font-size="10.00" fill="#1c4f33">MLP 128 → 2</text>
<text text-anchor="middle" x="1183.5" y="-121" font-family="Helvetica,sans-Serif" font-size="10.00" fill="#1c4f33">(μ, σ per grid cell)</text>
</g>
<!-- cnn&#45;&gt;gmlp -->
<g id="edge9" class="edge">
<title>cnn&#45;&gt;gmlp</title>
<path fill="none" stroke="#7d8b98" stroke-width="1.3" d="M1055.75,-129C1076.29,-129 1099.68,-129 1120.72,-129"/>
<polygon fill="#7d8b98" stroke="#7d8b98" stroke-width="1.3" points="1120.97,-131.8 1128.97,-129 1120.97,-126.2 1120.97,-131.8"/>
</g>
<!-- rbf -->
<g id="node11" class="node">
<title>rbf</title>
<path fill="#e4f1ea" stroke="#2c8b58" stroke-width="1.4" d="M1454,-89C1454,-89 1300,-89 1300,-89 1294,-89 1288,-83 1288,-77 1288,-77 1288,-65 1288,-65 1288,-59 1294,-53 1300,-53 1300,-53 1454,-53 1454,-53 1460,-53 1466,-59 1466,-65 1466,-65 1466,-77 1466,-77 1466,-83 1460,-89 1454,-89"/>
<text text-anchor="middle" x="1377" y="-74" font-family="Helvetica,sans-Serif" font-size="10.00" fill="#1c4f33">ParamLayer × 2</text>
<text text-anchor="middle" x="1377" y="-63" font-family="Helvetica,sans-Serif" font-size="10.00" fill="#1c4f33">exp(−0.5·dists/ls²) → 88,800 pts</text>
</g>
<!-- gmlp&#45;&gt;rbf -->
<g id="edge10" class="edge">
<title>gmlp&#45;&gt;rbf</title>
<path fill="none" stroke="#7d8b98" stroke-width="1.3" d="M1238.1,-112.77C1259.97,-106.14 1285.5,-98.41 1308.62,-91.41"/>
<polygon fill="#7d8b98" stroke="#7d8b98" stroke-width="1.3" points="1309.51,-94.06 1316.35,-89.07 1307.89,-88.7 1309.51,-94.06"/>
</g>
<!-- emlp -->
<g id="node12" class="node">
<title>emlp</title>
<path fill="#e4f1ea" stroke="#2c8b58" stroke-width="1.4" d="M1640,-52C1640,-52 1524,-52 1524,-52 1518,-52 1512,-46 1512,-40 1512,-40 1512,-28 1512,-28 1512,-22 1518,-16 1524,-16 1524,-16 1640,-16 1640,-16 1646,-16 1652,-22 1652,-28 1652,-28 1652,-40 1652,-40 1652,-46 1646,-52 1640,-52"/>
<text text-anchor="middle" x="1582" y="-37" font-family="Helvetica,sans-Serif" font-size="10.00" fill="#1c4f33">MLP 7 → 2</text>
<text text-anchor="middle" x="1582" y="-26" font-family="Helvetica,sans-Serif" font-size="10.00" fill="#1c4f33">+ topo(3) + seasonal(2)</text>
</g>
<!-- rbf&#45;&gt;emlp -->
<g id="edge11" class="edge">
<title>rbf&#45;&gt;emlp</title>
<path fill="none" stroke="#7d8b98" stroke-width="1.3" d="M1466.15,-54.93C1478.7,-52.64 1491.53,-50.31 1503.85,-48.06"/>
<polygon fill="#7d8b98" stroke="#7d8b98" stroke-width="1.3" points="1504.5,-50.79 1511.87,-46.6 1503.5,-45.28 1504.5,-50.79"/>
</g>
<!-- out -->
<g id="node13" class="node">
<title>out</title>
<path fill="#e4f1ea" stroke="#2c8b58" stroke-width="1.4" d="M1821,-52C1821,-52 1711,-52 1711,-52 1705,-52 1699,-46 1699,-40 1699,-40 1699,-28 1699,-28 1699,-22 1705,-16 1711,-16 1711,-16 1821,-16 1821,-16 1827,-16 1833,-22 1833,-28 1833,-28 1833,-40 1833,-40 1833,-46 1827,-52 1821,-52"/>
<text text-anchor="middle" x="1766" y="-37" font-family="Helvetica,sans-Serif" font-size="10.00" fill="#1c4f33">Gaussian μ, σ</text>
<text text-anchor="middle" x="1766" y="-26" font-family="Helvetica,sans-Serif" font-size="10.00" fill="#1c4f33">@ 88,800 target points</text>
</g>
<!-- emlp&#45;&gt;out -->
<g id="edge12" class="edge">
<title>emlp&#45;&gt;out</title>
<path fill="none" stroke="#7d8b98" stroke-width="1.3" d="M1652.07,-34C1664.69,-34 1677.91,-34 1690.67,-34"/>
<polygon fill="#7d8b98" stroke="#7d8b98" stroke-width="1.3" points="1690.99,-36.8 1698.99,-34 1690.99,-31.2 1690.99,-36.8"/>
</g>
<!-- loss -->
<g id="node14" class="node">
<title>loss</title>
<path fill="#f6ecd9" stroke="#b9791c" stroke-width="1.4" d="M1980,-52C1980,-52 1890,-52 1890,-52 1884,-52 1878,-46 1878,-40 1878,-40 1878,-28 1878,-28 1878,-22 1884,-16 1890,-16 1890,-16 1980,-16 1980,-16 1986,-16 1992,-22 1992,-28 1992,-28 1992,-40 1992,-40 1992,-46 1986,-52 1980,-52"/>
<text text-anchor="middle" x="1935" y="-31.5" font-family="Helvetica,sans-Serif" font-size="10.00" fill="#6b470f">gll &#160;(Gaussian NLL)</text>
</g>
<!-- out&#45;&gt;loss -->
<g id="edge13" class="edge">
<title>out&#45;&gt;loss</title>
<path fill="none" stroke="#7d8b98" stroke-width="1.3" d="M1833,-34C1845.08,-34 1857.66,-34 1869.69,-34"/>
<polygon fill="#7d8b98" stroke="#7d8b98" stroke-width="1.3" points="1869.91,-36.8 1877.91,-34 1869.91,-31.2 1869.91,-36.8"/>
</g>
<!-- tgt -->
<g id="node15" class="node">
<title>tgt</title>
<path fill="#e6eef8" stroke="#2560a6" stroke-width="1.4" d="M1053,-63C1053,-63 945,-63 945,-63 939,-63 933,-57 933,-51 933,-51 933,-39 933,-39 933,-33 939,-27 945,-27 945,-27 1053,-27 1053,-27 1059,-27 1065,-33 1065,-39 1065,-39 1065,-51 1065,-51 1065,-57 1059,-63 1053,-63"/>
<text text-anchor="middle" x="999" y="-48" font-family="Helvetica,sans-Serif" font-size="10.00" fill="#173a63">MeteoSwiss targets</text>
<text text-anchor="middle" x="999" y="-37" font-family="Helvetica,sans-Serif" font-size="10.00" fill="#173a63">x, e=[elev, Δelev, TPI]</text>
</g>
<!-- tgt&#45;&gt;emlp -->
<g id="edge16" class="edge">
<title>tgt&#45;&gt;emlp</title>
<path fill="none" stroke="#7d8b98" stroke-width="1.3" d="M1065.31,-43.29C1083.35,-42.84 1102.93,-42.38 1121,-42 1255.49,-39.16 1412.11,-36.6 1503.54,-35.17"/>
<polygon fill="#7d8b98" stroke="#7d8b98" stroke-width="1.3" points="1503.68,-37.97 1511.64,-35.05 1503.6,-32.37 1503.68,-37.97"/>
<text text-anchor="middle" x="1263" y="-42.8" font-family="Times,serif" font-size="9.00" fill="#57697a">e</text>
</g>
<!-- dists -->
<g id="node16" class="node">
<title>dists</title>
<path fill="#eef1f4" stroke="#8a97a3" stroke-width="1.4" d="M1222.5,-89C1222.5,-89 1144.5,-89 1144.5,-89 1138.5,-89 1132.5,-83 1132.5,-77 1132.5,-77 1132.5,-65 1132.5,-65 1132.5,-59 1138.5,-53 1144.5,-53 1144.5,-53 1222.5,-53 1222.5,-53 1228.5,-53 1234.5,-59 1234.5,-65 1234.5,-65 1234.5,-77 1234.5,-77 1234.5,-83 1228.5,-89 1222.5,-89"/>
<text text-anchor="middle" x="1183.5" y="-68.5" font-family="Helvetica,sans-Serif" font-size="10.00" fill="#2b3640">dists (P, lat, lon)</text>
</g>
<!-- tgt&#45;&gt;dists -->
<g id="edge14" class="edge">
<title>tgt&#45;&gt;dists</title>
<path fill="none" stroke="#7d8b98" stroke-width="1.3" d="M1065.11,-54.28C1084.46,-57.03 1105.52,-60.03 1124.39,-62.72"/>
<polygon fill="#7d8b98" stroke="#7d8b98" stroke-width="1.3" points="1124.02,-65.5 1132.33,-63.85 1124.81,-59.95 1124.02,-65.5"/>
</g>
<!-- dists&#45;&gt;rbf -->
<g id="edge15" class="edge">
<title>dists&#45;&gt;rbf</title>
<path fill="none" stroke="#7d8b98" stroke-width="1.3" d="M1234.81,-71C1248.69,-71 1264.21,-71 1279.76,-71"/>
<polygon fill="#7d8b98" stroke="#7d8b98" stroke-width="1.3" points="1279.88,-73.8 1287.88,-71 1279.88,-68.2 1279.88,-73.8"/>
</g>
</g>
</svg>
