<?xml version="1.0" encoding="UTF-8" standalone="no"?>
<!DOCTYPE svg PUBLIC "-//W3C//DTD SVG 1.1//EN"
 "http://www.w3.org/Graphics/SVG/1.1/DTD/svg11.dtd">
<!-- Generated by graphviz version 2.43.0 (0)
 -->
<!-- Title: s2 Pages: 1 -->
<svg width="499pt" height="357pt"
 viewBox="0.00 0.00 499.00 357.00" xmlns="http://www.w3.org/2000/svg" xmlns:xlink="http://www.w3.org/1999/xlink">
<g id="graph0" class="graph" transform="scale(1 1) rotate(0) translate(4 353)">
<title>s2</title>
<polygon fill="#ffffff" stroke="transparent" points="-4,4 -4,-353 495,-353 495,4 -4,4"/>
<text text-anchor="middle" x="245.5" y="-333" font-family="Helvetica,sans-Serif" font-size="15.00" fill="#131c24">§2 &#160;Atmospheric tmax &#160;(&#45;&#45;use&#45;atmospheric)</text>
<!-- PL -->
<g id="node1" class="node">
<title>PL</title>
<path fill="#e6eef8" stroke="#2560a6" stroke-width="1.5" d="M303.5,-324C303.5,-324 71.5,-324 71.5,-324 65.5,-324 59.5,-318 59.5,-312 59.5,-312 59.5,-300 59.5,-300 59.5,-294 65.5,-288 71.5,-288 71.5,-288 303.5,-288 303.5,-288 309.5,-288 315.5,-294 315.5,-300 315.5,-300 315.5,-312 315.5,-312 315.5,-318 309.5,-324 303.5,-324"/>
<text text-anchor="middle" x="187.5" y="-309.2" font-family="Helvetica,sans-Serif" font-size="11.00" fill="#173a63">load_era5_pressure_levels</text>
<text text-anchor="middle" x="187.5" y="-297.2" font-family="Helvetica,sans-Serif" font-size="11.00" fill="#173a63">native_grid=True → 90 ch + coarse lat/lon</text>
</g>
<!-- SCAF -->
<g id="node2" class="node">
<title>SCAF</title>
<path fill="#e6eef8" stroke="#2560a6" stroke-width="1.5" d="M219,-252C219,-252 12,-252 12,-252 6,-252 0,-246 0,-240 0,-240 0,-228 0,-228 0,-222 6,-216 12,-216 12,-216 219,-216 219,-216 225,-216 231,-222 231,-228 231,-228 231,-240 231,-240 231,-246 225,-252 219,-252"/>
<text text-anchor="middle" x="115.5" y="-237.2" font-family="Helvetica,sans-Serif" font-size="11.00" fill="#173a63">coarse scaffold</text>
<text text-anchor="middle" x="115.5" y="-225.2" font-family="Helvetica,sans-Serif" font-size="11.00" fill="#173a63">lat, lon, cos_time, sin_time, elevation</text>
</g>
<!-- PL&#45;&gt;SCAF -->
<g id="edge1" class="edge">
<title>PL&#45;&gt;SCAF</title>
<path fill="none" stroke="#7d8b98" stroke-width="1.3" d="M169.7,-287.7C160.46,-278.71 149.05,-267.61 139.08,-257.92"/>
<polygon fill="#7d8b98" stroke="#7d8b98" stroke-width="1.3" points="140.78,-255.67 133.09,-252.1 136.88,-259.69 140.78,-255.67"/>
</g>
<!-- CAT -->
<g id="node4" class="node">
<title>CAT</title>
<path fill="#e6eef8" stroke="#2560a6" stroke-width="1.5" d="M314,-180C314,-180 205,-180 205,-180 199,-180 193,-174 193,-168 193,-168 193,-156 193,-156 193,-150 199,-144 205,-144 205,-144 314,-144 314,-144 320,-144 326,-150 326,-156 326,-156 326,-168 326,-168 326,-174 320,-180 314,-180"/>
<text text-anchor="middle" x="259.5" y="-159.2" font-family="Helvetica,sans-Serif" font-size="11.00" fill="#173a63">torch.cat → context</text>
</g>
<!-- PL&#45;&gt;CAT -->
<g id="edge2" class="edge">
<title>PL&#45;&gt;CAT</title>
<path fill="none" stroke="#7d8b98" stroke-width="1.3" d="M209.15,-287.99C219.82,-278.5 231.98,-265.81 239.5,-252 250.33,-232.1 255.3,-206.64 257.58,-188.05"/>
<polygon fill="#7d8b98" stroke="#7d8b98" stroke-width="1.3" points="260.37,-188.3 258.45,-180.04 254.8,-187.69 260.37,-188.3"/>
</g>
<!-- SCAF&#45;&gt;CAT -->
<g id="edge3" class="edge">
<title>SCAF&#45;&gt;CAT</title>
<path fill="none" stroke="#7d8b98" stroke-width="1.3" d="M150.73,-215.88C170.69,-206.17 195.8,-193.96 216.87,-183.72"/>
<polygon fill="#7d8b98" stroke="#7d8b98" stroke-width="1.3" points="218.17,-186.21 224.14,-180.19 215.72,-181.17 218.17,-186.21"/>
</g>
<!-- SFC -->
<g id="node3" class="node">
<title>SFC</title>
<path fill="#e6eef8" stroke="#2560a6" stroke-width="1.5" d="M479,-252C479,-252 300,-252 300,-252 294,-252 288,-246 288,-240 288,-240 288,-228 288,-228 288,-222 294,-216 300,-216 300,-216 479,-216 479,-216 485,-216 491,-222 491,-228 491,-228 491,-240 491,-240 491,-246 485,-252 479,-252"/>
<text text-anchor="middle" x="389.5" y="-237.2" font-family="Helvetica,sans-Serif" font-size="11.00" fill="#173a63">optional surface anchors (10 ch)</text>
<text text-anchor="middle" x="389.5" y="-225.2" font-family="Helvetica,sans-Serif" font-size="11.00" fill="#173a63">&#45;&#45;use&#45;sfc&#45;atmos</text>
</g>
<!-- SFC&#45;&gt;CAT -->
<g id="edge4" class="edge">
<title>SFC&#45;&gt;CAT</title>
<path fill="none" stroke="#7d8b98" stroke-width="1.3" stroke-dasharray="5,2" d="M357.7,-215.88C339.91,-206.3 317.6,-194.28 298.73,-184.13"/>
<polygon fill="#7d8b98" stroke="#7d8b98" stroke-width="1.3" points="299.8,-181.52 291.42,-180.19 297.14,-186.45 299.8,-181.52"/>
</g>
<!-- OUT -->
<g id="node5" class="node">
<title>OUT</title>
<path fill="#e6eef8" stroke="#2560a6" stroke-width="1.5" d="M329,-108C329,-108 190,-108 190,-108 184,-108 178,-102 178,-96 178,-96 178,-84 178,-84 178,-78 184,-72 190,-72 190,-72 329,-72 329,-72 335,-72 341,-78 341,-84 341,-84 341,-96 341,-96 341,-102 335,-108 329,-108"/>
<text text-anchor="middle" x="259.5" y="-93.2" font-family="Helvetica,sans-Serif" font-size="11.00" fill="#173a63">(1461, 95, coarse)</text>
<text text-anchor="middle" x="259.5" y="-81.2" font-family="Helvetica,sans-Serif" font-size="11.00" fill="#173a63">dists_metadata = coarse</text>
</g>
<!-- CAT&#45;&gt;OUT -->
<g id="edge5" class="edge">
<title>CAT&#45;&gt;OUT</title>
<path fill="none" stroke="#7d8b98" stroke-width="1.3" d="M259.5,-143.7C259.5,-135.39 259.5,-125.28 259.5,-116.14"/>
<polygon fill="#7d8b98" stroke="#7d8b98" stroke-width="1.3" points="262.3,-116.1 259.5,-108.1 256.7,-116.1 262.3,-116.1"/>
</g>
<!-- BK -->
<g id="node6" class="node">
<title>BK</title>
<path fill="#f6ecd9" stroke="#b9791c" stroke-width="1.5" d="M294,-36C294,-36 225,-36 225,-36 219,-36 213,-30 213,-24 213,-24 213,-12 213,-12 213,-6 219,0 225,0 225,0 294,0 294,0 300,0 306,-6 306,-12 306,-12 306,-24 306,-24 306,-30 300,-36 294,-36"/>
<text text-anchor="middle" x="259.5" y="-15.2" font-family="Helvetica,sans-Serif" font-size="11.00" fill="#6b470f">§0 backbone</text>
</g>
<!-- OUT&#45;&gt;BK -->
<g id="edge6" class="edge">
<title>OUT&#45;&gt;BK</title>
<path fill="none" stroke="#7d8b98" stroke-width="1.3" d="M259.5,-71.7C259.5,-63.39 259.5,-53.28 259.5,-44.14"/>
<polygon fill="#7d8b98" stroke="#7d8b98" stroke-width="1.3" points="262.3,-44.1 259.5,-36.1 256.7,-44.1 262.3,-44.1"/>
</g>
</g>
</svg>
